<svg xmlns="http://www.w3.org/2000/svg" xmlns:svgjs="http://svgjs.com/svgjs" xmlns:xlink="http://www.w3.org/1999/xlink" id="Sy3x7jPUz" x="0" y="0" enable-background="new 0 0 1920 1080" version="1.1" viewBox="0 0 1920 1080"><style type="text/css">@-webkit-keyframes HJsnlXiD8G_Animation{0%,33.33%,66.67%{opacity:1;transform-box:fill-box;-webkit-transform-origin:50% 50%;transform-origin:50% 50%}50%{opacity:.5;transform-box:fill-box;-webkit-transform-origin:50% 50%;transform-origin:50% 50%}}@keyframes HJsnlXiD8G_Animation{0%,33.33%,66.67%{opacity:1;transform-box:fill-box;-webkit-transform-origin:50% 50%;transform-origin:50% 50%}50%{opacity:.5;transform-box:fill-box;-webkit-transform-origin:50% 50%;transform-origin:50% 50%}}@-webkit-keyframes ryD3gQsPIG_Animation{0%,16.67%,50%{opacity:1;transform-box:fill-box;-webkit-transform-origin:50% 50%;transform-origin:50% 50%}33.33%{opacity:.5;transform-box:fill-box;-webkit-transform-origin:50% 50%;transform-origin:50% 50%}}@keyframes ryD3gQsPIG_Animation{0%,16.67%,50%{opacity:1;transform-box:fill-box;-webkit-transform-origin:50% 50%;transform-origin:50% 50%}33.33%{opacity:.5;transform-box:fill-box;-webkit-transform-origin:50% 50%;transform-origin:50% 50%}}@-webkit-keyframes ryQnlXsDLz_Animation{0%,33.33%{opacity:1;transform-box:fill-box;-webkit-transform-origin:50% 50%;transform-origin:50% 50%}16.67%{opacity:.5;transform-box:fill-box;-webkit-transform-origin:50% 50%;transform-origin:50% 50%}}@keyframes ryQnlXsDLz_Animation{0%,33.33%{opacity:1;transform-box:fill-box;-webkit-transform-origin:50% 50%;transform-origin:50% 50%}16.67%{opacity:.5;transform-box:fill-box;-webkit-transform-origin:50% 50%;transform-origin:50% 50%}}@-webkit-keyframes SkKnlQiwLM_HkCMPsDIG_Animation{0%,33.33%,66.67%{-webkit-transform:translate(0,0);transform:translate(0,0);transform-box:fill-box;-webkit-transform-origin:50% 50%;transform-origin:50% 50%}50%{-webkit-transform:translate(0,-200px);transform:translate(0,-200px);transform-box:fill-box;-webkit-transform-origin:50% 50%;transform-origin:50% 50%}}@keyframes SkKnlQiwLM_HkCMPsDIG_Animation{0%,33.33%,66.67%{-webkit-transform:translate(0,0);transform:translate(0,0);transform-box:fill-box;-webkit-transform-origin:50% 50%;transform-origin:50% 50%}50%{-webkit-transform:translate(0,-200px);transform:translate(0,-200px);transform-box:fill-box;-webkit-transform-origin:50% 50%;transform-origin:50% 50%}}@-webkit-keyframes r1rhx7iP8G_HyRxIsPLf_Animation{0%,16.67%,50%{-webkit-transform:translate(0,0);transform:translate(0,0);transform-box:fill-box;-webkit-transform-origin:50% 50%;transform-origin:50% 50%}33.33%{-webkit-transform:translate(0,-200px);transform:translate(0,-200px);transform-box:fill-box;-webkit-transform-origin:50% 50%;transform-origin:50% 50%}}@keyframes r1rhx7iP8G_HyRxIsPLf_Animation{0%,16.67%,50%{-webkit-transform:translate(0,0);transform:translate(0,0);transform-box:fill-box;-webkit-transform-origin:50% 50%;transform-origin:50% 50%}33.33%{-webkit-transform:translate(0,-200px);transform:translate(0,-200px);transform-box:fill-box;-webkit-transform-origin:50% 50%;transform-origin:50% 50%}}@-webkit-keyframes S1Z3emiv8G_Sk80EsvUf_Animation{0%,33.33%{-webkit-transform:translate(0,0);transform:translate(0,0);transform-box:fill-box;-webkit-transform-origin:50% 50%;transform-origin:50% 50%}16.67%{-webkit-transform:translate(0,-200px);transform:translate(0,-200px);transform-box:fill-box;-webkit-transform-origin:50% 50%;transform-origin:50% 50%}}@keyframes S1Z3emiv8G_Sk80EsvUf_Animation{0%,33.33%{-webkit-transform:translate(0,0);transform:translate(0,0);transform-box:fill-box;-webkit-transform-origin:50% 50%;transform-origin:50% 50%}16.67%{-webkit-transform:translate(0,-200px);transform:translate(0,-200px);transform-box:fill-box;-webkit-transform-origin:50% 50%;transform-origin:50% 50%}}#Sy3x7jPUz *{-webkit-animation-duration:3s;animation-duration:3s;-webkit-animation-iteration-count:infinite;animation-iteration-count:infinite;-webkit-animation-timing-function:cubic-bezier(0,0,1,1);animation-timing-function:cubic-bezier(0,0,1,1)}#SkGneXiwIM{fill:#7bc370}#By42lmiDUG{fill:#e6e6e6}#SJUhx7iDLG{fill:#7bc370}#S1O2xQiv8f{fill:#e6e6e6}#B1cheQivLG{fill:#7bc370}#HknnxXjwUG{fill:#e6e6e6}#HJsnlXiD8G{-webkit-animation-timing-function:cubic-bezier(.42,0,.58,1);animation-timing-function:cubic-bezier(.42,0,.58,1)}#S1Z3emiv8G_Sk80EsvUf{-webkit-animation-name:S1Z3emiv8G_Sk80EsvUf_Animation;animation-name:S1Z3emiv8G_Sk80EsvUf_Animation}#S1Z3emiv8G_Sk80EsvUf,#SkKnlQiwLM_HkCMPsDIG,#r1rhx7iP8G_HyRxIsPLf,#ryD3gQsPIG,#ryQnlXsDLz{-webkit-animation-timing-function:cubic-bezier(.42,0,.58,1);animation-timing-function:cubic-bezier(.42,0,.58,1)}#r1rhx7iP8G_HyRxIsPLf{-webkit-animation-name:r1rhx7iP8G_HyRxIsPLf_Animation;animation-name:r1rhx7iP8G_HyRxIsPLf_Animation}#SkKnlQiwLM_HkCMPsDIG{-webkit-animation-name:SkKnlQiwLM_HkCMPsDIG_Animation;animation-name:SkKnlQiwLM_HkCMPsDIG_Animation}#ryQnlXsDLz{-webkit-animation-name:ryQnlXsDLz_Animation;animation-name:ryQnlXsDLz_Animation}#ryD3gQsPIG{-webkit-animation-name:ryD3gQsPIG_Animation;animation-name:ryD3gQsPIG_Animation}#HJsnlXiD8G{-webkit-animation-name:HJsnlXiD8G_Animation;animation-name:HJsnlXiD8G_Animation}</style><g id="S1Z3emiv8G_Sk80EsvUf" data-animator-group="true" data-animator-type="0"><g id="S1Z3emiv8G"><polygon id="SkGneXiwIM" points="722.5 319.5 652.5 319.5 652.5 492.5 549.5 492.5 549.5 319.5 479.5 319.5 479.5 562.5 652.5 562.5 652.5 612.5 722.5 612.5 722.5 562.5 748 562.5 748 492.5 722.5 492.5"/></g></g><g id="ryQnlXsDLz"><path id="By42lmiDUG" d="M727,755H499c-11,0-20-9-20-20l0,0c0-11,9-20,20-20h228c11,0,20,9,20,20l0,0C747,746,738,755,727,755z"/></g><g id="r1rhx7iP8G_HyRxIsPLf" data-animator-group="true" data-animator-type="0"><g id="r1rhx7iP8G"><path id="SJUhx7iDLG" d="M961.5,302C870.8,302,797,375.8,797,466.5S870.8,631,961.5,631c90.7,0,164.5-73.8,164.5-164.5 S1052.2,302,961.5,302z M961.5,372c13,0,25.4,2.6,36.6,7.4L874.4,503.1c-4.8-11.3-7.4-23.6-7.4-36.6C867,414.4,909.4,372,961.5,372 z M961.5,561c-13.5,0-26.4-2.9-38-8L1048,428.5c5.1,11.6,8,24.5,8,38C1056,518.6,1013.6,561,961.5,561z"/></g></g><g id="ryD3gQsPIG"><path id="S1O2xQiv8f" d="M1106,755H816c-11,0-20-9-20-20l0,0c0-11,9-20,20-20h290c11,0,20,9,20,20l0,0C1126,746,1117,755,1106,755z"/></g><g id="SkKnlQiwLM_HkCMPsDIG" data-animator-group="true" data-animator-type="0"><g id="SkKnlQiwLM"><polygon id="B1cheQivLG" points="1441 492.5 1415.5 492.5 1415.5 319.5 1345.5 319.5 1345.5 492.5 1242.5 492.5 1242.5 319.5 1172.5 319.5 1172.5 562.5 1345.5 562.5 1345.5 612.5 1415.5 612.5 1415.5 562.5 1441 562.5"/></g></g><g id="HJsnlXiD8G"><path id="HknnxXjwUG" d="M1421,755h-228c-11,0-20-9-20-20l0,0c0-11,9-20,20-20h228c11,0,20,9,20,20l0,0C1441,746,1432,755,1421,755z"/></g></svg>